<svg id="Layer_1" data-name="Layer 1" xmlns="http://www.w3.org/2000/svg" viewBox="0 0 25 25"><defs><style>.cls-1{fill:#5e5e5e;}</style></defs><path class="cls-1" d="M24.91,17.65a7.44,7.44,0,0,1-2,5.24,7.35,7.35,0,0,1-5.23,2c-2.07.12-8.25.12-10.32,0a7.44,7.44,0,0,1-5.23-2,7.36,7.36,0,0,1-2-5.24C0,15.59,0,9.4.09,7.34a7.42,7.42,0,0,1,2-5.24,7.4,7.4,0,0,1,5.23-2C9.41,0,15.59,0,17.66.09a7.44,7.44,0,0,1,5.23,2,7.36,7.36,0,0,1,2,5.24C25,9.41,25,15.59,24.91,17.65ZM22.75,12.5c0-1.82.15-5.72-.5-7.37a4.25,4.25,0,0,0-2.38-2.38c-1.64-.64-5.55-.5-7.37-.5s-5.72-.15-7.37.5A4.23,4.23,0,0,0,2.76,5.13c-.65,1.64-.5,5.55-.5,7.37s-.15,5.72.5,7.37a4.23,4.23,0,0,0,2.37,2.38c1.64.64,5.55.5,7.37.5s5.72.15,7.37-.5a4.25,4.25,0,0,0,2.38-2.38C22.9,18.23,22.75,14.32,22.75,12.5Zm-3.84,0A6.41,6.41,0,1,1,12.5,6.09,6.4,6.4,0,0,1,18.91,12.5Zm-2.24,0a4.17,4.17,0,1,0-4.17,4.17A4.17,4.17,0,0,0,16.67,12.5Zm2.5-5.18a1.5,1.5,0,1,1,1.5-1.49A1.49,1.49,0,0,1,19.17,7.32Z"/></svg>