<?xml version="1.0" encoding="utf-8"?>
<!-- Generator: Adobe Illustrator 24.2.1, SVG Export Plug-In . SVG Version: 6.00 Build 0)  -->
<svg version="1.1" id="Layer_1" xmlns="http://www.w3.org/2000/svg" xmlns:xlink="http://www.w3.org/1999/xlink" x="0px" y="0px"
	 viewBox="0 0 60 60" style="enable-background:new 0 0 60 60;" xml:space="preserve">
<style type="text/css">
	.st0{fill:#FF8717;}
</style>
<g>
	<path class="st0" d="M14.4,10.8l34.8,34.8c1,1,1,2.6,0,3.6h0c-1,1-2.6,1-3.6,0L10.8,14.4c-1-1-1-2.6,0-3.6l0,0
		C11.8,9.8,13.4,9.8,14.4,10.8z"/>
	<path class="st0" d="M49.2,14.4L14.4,49.2c-1,1-2.6,1-3.6,0h0c-1-1-1-2.6,0-3.6l34.8-34.8c1-1,2.6-1,3.6,0l0,0
		C50.2,11.8,50.2,13.4,49.2,14.4z"/>
</g>
</svg>
