<svg id="Layer_1" data-name="Layer 1" xmlns="http://www.w3.org/2000/svg" viewBox="0 0 983 978"><defs><style>.cls-1{fill:#e0e0e0;}</style></defs><path class="cls-1" d="M983,489l-.06,6a2.48,2.48,0,0,1-5,0v0l0-6v0a2.5,2.5,0,0,1,5,0Z"/><path class="cls-1" d="M982.61,507.09,982,519.14a2.4,2.4,0,0,1-4.8-.23v-.06l.54-11.94v-.06a2.44,2.44,0,1,1,4.88.22Z"/><path class="cls-1" d="M981.08,531.16l-1.21,12a2.32,2.32,0,0,1-4.62-.45v-.05l1.12-11.9v0a2.36,2.36,0,1,1,4.7.44Z"/><path class="cls-1" d="M978.37,555.13l-1.79,11.93a2.25,2.25,0,0,1-4.45-.66v0l1.7-11.83v0a2.28,2.28,0,1,1,4.52.65Z"/><path class="cls-1" d="M974.49,578.93l-2.38,11.82a2.17,2.17,0,0,1-4.25-.84v0l2.28-11.73v0a2.21,2.21,0,0,1,4.34.84Z"/><path class="cls-1" d="M969.45,602.51l-3,11.69a2.09,2.09,0,0,1-4.06-1l0,0,2.85-11.6,0,0a2.13,2.13,0,1,1,4.13,1Z"/><path class="cls-1" d="M963.24,625.8l-3.53,11.53a2,2,0,0,1-3.85-1.17v0l3.43-11.45,0,0a2.05,2.05,0,0,1,3.93,1.17Z"/><path class="cls-1" d="M955.89,648.76l-4.09,11.33a1.93,1.93,0,1,1-3.64-1.3v0l4-11.27,0-.05a2,2,0,0,1,3.72,1.32Z"/><path class="cls-1" d="M947.42,671.32l-4.65,11.12a1.86,1.86,0,0,1-3.43-1.42l0,0,4.54-11.06,0,0a1.9,1.9,0,0,1,3.51,1.44Z"/><path class="cls-1" d="M937.85,693.43l-5.2,10.87a1.78,1.78,0,0,1-3.21-1.52l0,0,5.08-10.82,0,0a1.82,1.82,0,0,1,3.29,1.54Z"/><path class="cls-1" d="M927.19,715l-5.72,10.6a1.7,1.7,0,0,1-3-1.6l0,0,5.61-10.56,0,0A1.74,1.74,0,0,1,927.2,715Z"/><path class="cls-1" d="M915.49,736.09l-6.23,10.31a1.62,1.62,0,0,1-2.78-1.67l0,0,6.13-10.27,0,0a1.66,1.66,0,0,1,2.85,1.7Z"/><path class="cls-1" d="M902.78,756.54l-6.73,10a1.54,1.54,0,0,1-2.57-1.71l0,0,6.63-10,0,0a1.58,1.58,0,1,1,2.63,1.75Z"/><path class="cls-1" d="M889.08,776.34,881.87,786a1.46,1.46,0,0,1-2.35-1.74l0,0,7.1-9.63,0,0a1.51,1.51,0,0,1,2.42,1.79Z"/><path class="cls-1" d="M874.43,795.43l-7.67,9.28a1.39,1.39,0,0,1-2.14-1.76l0,0,7.56-9.27,0,0a1.43,1.43,0,1,1,2.21,1.81Z"/><path class="cls-1" d="M858.87,813.79l-8.11,8.88a1.31,1.31,0,0,1-1.94-1.75l0,0,8-8.89,0,0a1.35,1.35,0,0,1,2,1.8Z"/><path class="cls-1" d="M842.43,831.36l-8.53,8.48a1.23,1.23,0,0,1-1.74-1.74l0,0,8.43-8.49,0,0a1.27,1.27,0,1,1,1.8,1.79Z"/><path class="cls-1" d="M825.16,848.11l-8.94,8.06a1.15,1.15,0,0,1-1.55-1.71l0,0,8.84-8.07,0,0a1.19,1.19,0,1,1,1.6,1.76Z"/><path class="cls-1" d="M807.09,864l-9.32,7.61a1.09,1.09,0,0,1-1.51-.15,1.07,1.07,0,0,1,.15-1.51l0,0,9.22-7.63,0,0a1.12,1.12,0,0,1,1.42,1.72Z"/><path class="cls-1" d="M788.27,879l-9.68,7.15a1,1,0,0,1-1.19-1.6l0,0,9.59-7.17,0,0a1,1,0,0,1,1.24,1.66Z"/><path class="cls-1" d="M768.74,893l-10,6.66a.92.92,0,0,1-1-1.53h0l9.93-6.7h0a1,1,0,1,1,1.07,1.59Z"/><path class="cls-1" d="M748.56,906.1l-10.33,6.16a.85.85,0,0,1-1.15-.29.84.84,0,0,1,.28-1.15h0l10.25-6.21h0a.88.88,0,0,1,1.21.3.87.87,0,0,1-.3,1.2Z"/><path class="cls-1" d="M727.75,918.16l-10.61,5.64a.76.76,0,1,1-.72-1.34h0L727,916.76h0a.79.79,0,0,1,1.08.32.8.8,0,0,1-.32,1.09Z"/><path class="cls-1" d="M706.39,929.18l-10.88,5.11a.68.68,0,1,1-.58-1.23h0l10.81-5.17h0a.72.72,0,0,1,1,.35.71.71,0,0,1-.34,1Z"/><path class="cls-1" d="M684.51,939.14l-11.12,4.56a.61.61,0,0,1-.79-.33.6.6,0,0,1,.33-.78h0L684,938h0a.65.65,0,0,1,.84.35.64.64,0,0,1-.35.84Z"/><path class="cls-1" d="M662.17,948l-11.33,4a.53.53,0,0,1-.67-.32.52.52,0,0,1,.32-.67h0l11.28-4.08h0a.56.56,0,0,1,.38,1.06Z"/><path class="cls-1" d="M639.42,955.74l-11.5,3.45a.45.45,0,0,1-.56-.31.44.44,0,0,1,.3-.55h0l11.46-3.51h0a.48.48,0,0,1,.61.32.49.49,0,0,1-.32.61Z"/><path class="cls-1" d="M616.33,962.35l-11.66,2.87a.37.37,0,0,1-.45-.27.38.38,0,0,1,.27-.45h0l11.62-3h0a.41.41,0,0,1,.5.3.41.41,0,0,1-.29.5Z"/><path class="cls-1" d="M593,967.8l-11.79,2.3a.3.3,0,0,1-.11-.58h0l11.76-2.37h0a.34.34,0,0,1,.39.26.33.33,0,0,1-.26.39Z"/><path class="cls-1" d="M569.32,972.1l-11.88,1.71a.22.22,0,0,1-.25-.18.23.23,0,0,1,.18-.25h0l11.86-1.78h0a.26.26,0,0,1,.29.21.26.26,0,0,1-.22.29Z"/><path class="cls-1" d="M545.51,975.23l-12,1.12a.13.13,0,0,1-.15-.12.14.14,0,0,1,.13-.15l11.93-1.2a.17.17,0,0,1,.2.15.18.18,0,0,1-.15.2Z"/><path class="cls-1" d="M521.58,977.19l-12,.54a.06.06,0,0,1-.06-.06.06.06,0,0,1,.06-.06l12-.62a.1.1,0,1,1,0,.2Z"/><path class="cls-1" d="M497.5,978l-6,0,6-.06,0,0,0,0Z"/><path class="cls-1" d="M0,489l.06-6a2.48,2.48,0,0,1,5,0v0l0,6v0a2.5,2.5,0,0,1-5,0Z"/><path class="cls-1" d="M.39,470.91,1,458.86a2.4,2.4,0,0,1,4.8.23v.06l-.53,11.94v.06a2.44,2.44,0,1,1-4.88-.22Z"/><path class="cls-1" d="M1.92,446.84l1.21-12a2.32,2.32,0,0,1,4.62.45v0l-1.12,11.9v.05a2.36,2.36,0,1,1-4.7-.44Z"/><path class="cls-1" d="M4.63,422.87l1.79-11.93a2.25,2.25,0,0,1,4.45.66v0l-1.7,11.83v0a2.28,2.28,0,1,1-4.52-.65Z"/><path class="cls-1" d="M8.51,399.07l2.38-11.82a2.17,2.17,0,0,1,4.25.84v.05l-2.28,11.73v.05a2.21,2.21,0,0,1-4.34-.84Z"/><path class="cls-1" d="M13.55,375.49l3-11.69a2.09,2.09,0,0,1,4.06,1v.05l-2.86,11.6v0a2.13,2.13,0,1,1-4.14-1Z"/><path class="cls-1" d="M19.76,352.2l3.53-11.53a2,2,0,0,1,3.85,1.17v.05L23.7,353.34l0,0a2.05,2.05,0,0,1-3.93-1.17Z"/><path class="cls-1" d="M27.11,329.24l4.09-11.33a1.93,1.93,0,1,1,3.64,1.3v0l-4,11.27,0,.05a2,2,0,0,1-3.72-1.32Z"/><path class="cls-1" d="M35.58,306.68l4.65-11.12A1.86,1.86,0,0,1,43.66,297l0,0L39.1,308.09l0,0a1.9,1.9,0,0,1-3.51-1.44Z"/><path class="cls-1" d="M45.15,284.57l5.2-10.87a1.78,1.78,0,0,1,3.21,1.52l0,0-5.08,10.82,0,0a1.82,1.82,0,0,1-3.29-1.54Z"/><path class="cls-1" d="M55.81,263l5.72-10.6a1.7,1.7,0,0,1,3,1.6l0,0-5.61,10.56,0,0A1.74,1.74,0,0,1,55.8,263Z"/><path class="cls-1" d="M67.51,241.91l6.23-10.31a1.62,1.62,0,0,1,2.78,1.67l0,0-6.13,10.27,0,0a1.66,1.66,0,0,1-2.85-1.7Z"/><path class="cls-1" d="M80.22,221.46l6.73-10a1.54,1.54,0,0,1,2.57,1.71l0,0-6.63,10,0,0a1.58,1.58,0,0,1-2.63-1.75Z"/><path class="cls-1" d="M93.92,201.66l7.21-9.63a1.46,1.46,0,0,1,2.35,1.74l0,0-7.1,9.63,0,0a1.51,1.51,0,0,1-2.42-1.79Z"/><path class="cls-1" d="M108.57,182.57l7.67-9.28a1.39,1.39,0,0,1,2.14,1.76l0,0-7.56,9.27,0,0a1.43,1.43,0,1,1-2.21-1.81Z"/><path class="cls-1" d="M124.13,164.21l8.11-8.88a1.31,1.31,0,0,1,1.94,1.75l0,0-8,8.89,0,0a1.35,1.35,0,0,1-2-1.8Z"/><path class="cls-1" d="M140.57,146.64l8.53-8.48a1.23,1.23,0,0,1,1.74,1.74l0,0-8.43,8.49,0,0a1.27,1.27,0,1,1-1.8-1.79Z"/><path class="cls-1" d="M157.84,129.89l8.94-8.06a1.15,1.15,0,0,1,1.55,1.71l0,0-8.84,8.07,0,0a1.19,1.19,0,0,1-1.6-1.76Z"/><path class="cls-1" d="M175.91,114l9.32-7.61a1.09,1.09,0,0,1,1.51.15,1.07,1.07,0,0,1-.15,1.51l0,0-9.22,7.63,0,0a1.12,1.12,0,1,1-1.42-1.72Z"/><path class="cls-1" d="M194.73,99l9.68-7.15a1,1,0,0,1,1.19,1.6l0,0L196,100.66l0,0A1,1,0,1,1,194.73,99Z"/><path class="cls-1" d="M214.26,85l10-6.66a.92.92,0,0,1,1,1.53h0l-9.93,6.7h0A1,1,0,1,1,214.25,85Z"/><path class="cls-1" d="M234.44,71.9l10.33-6.16a.85.85,0,0,1,1.15.29.84.84,0,0,1-.28,1.15h0L235.37,73.4h0a.88.88,0,0,1-1.21-.3.87.87,0,0,1,.3-1.2Z"/><path class="cls-1" d="M255.25,59.84l10.61-5.64a.76.76,0,1,1,.72,1.34h0L256,61.24h0a.79.79,0,0,1-1.08-.32.8.8,0,0,1,.32-1.09Z"/><path class="cls-1" d="M276.61,48.82l10.88-5.11a.68.68,0,1,1,.58,1.23h0l-10.81,5.17h0a.72.72,0,0,1-1-.35.71.71,0,0,1,.34-1Z"/><path class="cls-1" d="M298.49,38.87l11.12-4.57a.61.61,0,0,1,.79.33.6.6,0,0,1-.33.78h0L299,40.05h0a.65.65,0,0,1-.84-.35.64.64,0,0,1,.35-.84Z"/><path class="cls-1" d="M320.83,30l11.33-4a.53.53,0,0,1,.67.32.52.52,0,0,1-.32.67h0l-11.27,4.08h0a.56.56,0,0,1-.38-1.06Z"/><path class="cls-1" d="M343.58,22.26l11.5-3.45a.45.45,0,0,1,.56.31.44.44,0,0,1-.3.55h0l-11.46,3.51h0a.48.48,0,0,1-.61-.32.49.49,0,0,1,.32-.61Z"/><path class="cls-1" d="M366.67,15.65l11.66-2.87a.37.37,0,0,1,.45.27.38.38,0,0,1-.27.45h0l-11.62,2.95h0a.41.41,0,0,1-.5-.3.41.41,0,0,1,.29-.5Z"/><path class="cls-1" d="M390.05,10.2l11.79-2.3a.29.29,0,0,1,.34.24.28.28,0,0,1-.23.34h0l-11.76,2.37h0a.34.34,0,0,1-.39-.26.33.33,0,0,1,.26-.39Z"/><path class="cls-1" d="M413.68,5.9l11.88-1.71a.22.22,0,0,1,.25.18.23.23,0,0,1-.18.25h0L413.76,6.4h0a.25.25,0,0,1-.07-.5Z"/><path class="cls-1" d="M437.49,2.77l11.95-1.12a.13.13,0,0,1,.15.12.14.14,0,0,1-.13.15l-11.93,1.2a.17.17,0,0,1-.2-.15.18.18,0,0,1,.15-.2Z"/><path class="cls-1" d="M461.42.81l12-.54a.06.06,0,0,1,.06.06.06.06,0,0,1-.06.06l-12,.62a.11.11,0,0,1-.11-.09.11.11,0,0,1,.09-.11Z"/><path class="cls-1" d="M485.5,0l6,0-6,.06a0,0,0,0,1,0,0,0,0,0,0,1,0,0Z"/></svg>