<?xml version="1.0" encoding="utf-8"?>
<!-- Generator: Adobe Illustrator 24.2.1, SVG Export Plug-In . SVG Version: 6.00 Build 0)  -->
<svg version="1.1" id="Layer_1" xmlns="http://www.w3.org/2000/svg" xmlns:xlink="http://www.w3.org/1999/xlink" x="0px" y="0px"
	 viewBox="0 0 983 978" style="enable-background:new 0 0 983 978;" xml:space="preserve">
<style type="text/css">
	.st0{fill:url(#SVGID_1_);}
	.st1{fill:url(#SVGID_2_);}
</style>
<g>
	<linearGradient id="SVGID_1_" gradientUnits="userSpaceOnUse" x1="25.9898" y1="721.7551" x2="493" y2="721.7551">
		<stop  offset="0" style="stop-color:#EDEDED;stop-opacity:0"/>
		<stop  offset="7.857205e-02" style="stop-color:#E9E9E9;stop-opacity:7.861429e-02"/>
		<stop  offset="0.3222" style="stop-color:#E2E2E2;stop-opacity:0.3224"/>
		<stop  offset="0.9995" style="stop-color:#E0E0E0"/>
	</linearGradient>
	<path class="st0" d="M491.5,954.5c-30.5-0.1-60.9-3.1-90.8-9.1c-29.9-6-59.1-14.9-87.2-26.6c-56.2-23.4-107.7-58.1-150.6-101.2
		C119.9,774.5,85.5,723,62.4,666.7c-11.6-28.1-20.4-57.3-26.2-87.2c-5.8-29.8-8.7-60.2-8.7-90.6c0.1,30.4,3.1,60.7,9,90.5
		c6,29.8,14.9,58.9,26.5,87c23.3,56,57.9,107.3,100.9,150.1c43,42.8,94.4,77.1,150.4,100.2c28,11.5,57.2,20.3,86.9,26.1
		c29.7,5.8,60,8.7,90.3,8.6c0.8,0,1.5,0.7,1.5,1.5S492.3,954.5,491.5,954.5L491.5,954.5z"/>
</g>
<g>
	<linearGradient id="SVGID_2_" gradientUnits="userSpaceOnUse" x1="489.9961" y1="256.2449" x2="957.0062" y2="256.2449">
		<stop  offset="5.373677e-04" style="stop-color:#E0E0E0"/>
		<stop  offset="0.6778" style="stop-color:#E2E2E2;stop-opacity:0.3224"/>
		<stop  offset="0.9214" style="stop-color:#E9E9E9;stop-opacity:7.861429e-02"/>
		<stop  offset="1" style="stop-color:#EDEDED;stop-opacity:0"/>
	</linearGradient>
	<path class="st1" d="M491.5,23.5c30.5,0.1,60.9,3.1,90.8,9.1c29.9,6,59.1,14.9,87.2,26.6c56.2,23.4,107.7,58.1,150.6,101.2
		c42.9,43.1,77.3,94.7,100.5,150.9c11.6,28.1,20.4,57.3,26.2,87.2c5.8,29.8,8.7,60.2,8.7,90.6c-0.1-30.4-3.1-60.7-9-90.5
		c-6-29.8-14.9-58.9-26.5-87c-23.3-56-57.9-107.3-100.9-150.1c-43-42.8-94.4-77.1-150.4-100.2c-28-11.5-57.2-20.3-86.9-26.1
		c-29.7-5.8-60-8.7-90.3-8.6c-0.8,0-1.5-0.7-1.5-1.5S490.7,23.5,491.5,23.5L491.5,23.5z"/>
</g>
</svg>
