<svg id="Layer_1" data-name="Layer 1" xmlns="http://www.w3.org/2000/svg" viewBox="0 0 983 978"><defs><style>.cls-1{fill:#e0e0e0;}</style></defs><path class="cls-1" d="M180.71,799.79A444.15,444.15,0,0,1,126.29,733a437.84,437.84,0,0,1,1.56-487,441.38,441.38,0,0,1,54.63-66,440.72,440.72,0,0,0-54.11,66.39,435.37,435.37,0,0,0,1.55,484.22,440.37,440.37,0,0,0,54.32,65.67h0a2.5,2.5,0,1,1-3.53,3.54Z"/><path class="cls-1" d="M802.29,178.21A444.15,444.15,0,0,1,856.71,245a437.84,437.84,0,0,1-1.56,487,441.38,441.38,0,0,1-54.63,66,441.4,441.4,0,0,0,54.12-66.39,435.39,435.39,0,0,0-1.56-484.22,440.37,440.37,0,0,0-54.32-65.67h0a2.5,2.5,0,1,1,3.53-3.54Z"/></svg>